<svg xmlns="http://www.w3.org/2000/svg" viewBox="0 0 500 500"><g id="freepik--background-complete--inject-39"><rect y="382.4" width="500" height="0.25" style="fill:#ebebeb"></rect><rect x="416.78" y="398.49" width="33.12" height="0.25" style="fill:#ebebeb"></rect><rect x="322.53" y="401.21" width="8.69" height="0.25" style="fill:#ebebeb"></rect><rect x="396.59" y="389.21" width="19.19" height="0.25" style="fill:#ebebeb"></rect><rect x="52.46" y="390.89" width="43.19" height="0.25" style="fill:#ebebeb"></rect><rect x="104.56" y="390.89" width="6.33" height="0.25" style="fill:#ebebeb"></rect><rect x="131.47" y="395.11" width="93.68" height="0.25" style="fill:#ebebeb"></rect><path d="M237,337.8H43.91a5.71,5.71,0,0,1-5.7-5.71V60.66A5.71,5.71,0,0,1,43.91,55H237a5.71,5.71,0,0,1,5.71,5.71V332.09A5.71,5.71,0,0,1,237,337.8ZM43.91,55.2a5.46,5.46,0,0,0-5.45,5.46V332.09a5.46,5.46,0,0,0,5.45,5.46H237a5.47,5.47,0,0,0,5.46-5.46V60.66A5.47,5.47,0,0,0,237,55.2Z" style="fill:#ebebeb"></path><path d="M453.31,337.8H260.21a5.72,5.72,0,0,1-5.71-5.71V60.66A5.72,5.72,0,0,1,260.21,55h193.1A5.71,5.71,0,0,1,459,60.66V332.09A5.71,5.71,0,0,1,453.31,337.8ZM260.21,55.2a5.47,5.47,0,0,0-5.46,5.46V332.09a5.47,5.47,0,0,0,5.46,5.46h193.1a5.47,5.47,0,0,0,5.46-5.46V60.66a5.47,5.47,0,0,0-5.46-5.46Z" style="fill:#ebebeb"></path><rect x="234.84" y="257.75" width="21.68" height="124.65" transform="translate(491.35 640.15) rotate(180)" style="fill:#e6e6e6"></rect><polygon points="242.45 382.4 234.84 382.4 234.84 365.42 250.44 365.42 242.45 382.4" style="fill:#fafafa"></polygon><rect x="421.05" y="257.75" width="21.68" height="124.65" transform="translate(863.78 640.15) rotate(180)" style="fill:#e6e6e6"></rect><rect x="234.84" y="257.75" width="192.86" height="114.23" transform="translate(662.53 629.74) rotate(180)" style="fill:#fafafa"></rect><path d="M401.81,294.79H260.73c-11.37,0-20.62-7.32-20.62-16.31h0c0-9,9.25-16.3,20.62-16.3h33.59A24.14,24.14,0,0,1,309,267a24.94,24.94,0,0,0,3.3,2.16,21.63,21.63,0,0,0,10.38,2.7h17.11a22.34,22.34,0,0,0,13.83-5,23.64,23.64,0,0,1,14.55-4.75h33.61c11.37,0,20.63,7.31,20.63,16.3S413.18,294.79,401.81,294.79ZM260.73,263.46c-10.66,0-19.34,6.73-19.34,15h0c0,8.28,8.68,15,19.34,15H401.81c10.66,0,19.34-6.74,19.34-15s-8.68-15-19.34-15H368.2a22.64,22.64,0,0,0-13.75,4.47,23.64,23.64,0,0,1-14.63,5.26H322.71a22.85,22.85,0,0,1-11-2.86,25.74,25.74,0,0,1-3.46-2.27,22.85,22.85,0,0,0-13.93-4.6Z" style="fill:#f0f0f0"></path><polygon points="420.08 382.4 427.7 382.4 427.7 365.42 412.1 365.42 420.08 382.4" style="fill:#fafafa"></polygon><path d="M401.81,331.18H260.73c-11.37,0-20.62-7.31-20.62-16.3v0c0-9,9.25-16.3,20.62-16.3h33.6a24.13,24.13,0,0,1,14.72,4.88,25.4,25.4,0,0,0,3.28,2.16,21.63,21.63,0,0,0,10.38,2.7h17.11a22.33,22.33,0,0,0,13.83-5,23.61,23.61,0,0,1,14.55-4.75h33.61c11.37,0,20.63,7.31,20.63,16.3S413.18,331.18,401.81,331.18ZM260.73,299.85c-10.66,0-19.34,6.74-19.34,15v0c0,8.28,8.68,15,19.34,15H401.81c10.66,0,19.34-6.73,19.34-15s-8.68-15-19.34-15H368.2a22.56,22.56,0,0,0-13.75,4.48,23.64,23.64,0,0,1-14.63,5.26H322.71a23,23,0,0,1-11-2.86,27.35,27.35,0,0,1-3.45-2.27,22.87,22.87,0,0,0-13.93-4.61Z" style="fill:#f0f0f0"></path><path d="M401.81,367.56H260.73c-11.37,0-20.62-7.31-20.62-16.3S249.36,335,260.73,335h33.61a24.13,24.13,0,0,1,14.7,4.87,25.87,25.87,0,0,0,3.29,2.16,21.63,21.63,0,0,0,10.38,2.7h17.11a22.34,22.34,0,0,0,13.83-5A23.61,23.61,0,0,1,368.19,335h33.62c11.37,0,20.63,7.32,20.63,16.31S413.18,367.56,401.81,367.56ZM260.73,336.24c-10.66,0-19.34,6.74-19.34,15s8.68,15,19.34,15H401.81c10.66,0,19.34-6.73,19.34-15s-8.68-15-19.34-15H368.19a22.59,22.59,0,0,0-13.74,4.47A23.64,23.64,0,0,1,339.82,346H322.71a23,23,0,0,1-11-2.86,27.45,27.45,0,0,1-3.46-2.27,22.81,22.81,0,0,0-13.91-4.6Z" style="fill:#f0f0f0"></path><rect x="52.09" y="296.57" width="67.97" height="85.82" transform="translate(172.16 678.97) rotate(180)" style="fill:#e6e6e6"></rect><rect x="120.07" y="296.57" width="89.34" height="85.82" style="fill:#f0f0f0"></rect><polygon points="52.09 289.26 209.4 289.26 209.4 297.62 52.09 303.88 52.09 289.26" style="fill:#e6e6e6;opacity:0.7000000000000001;mix-blend-mode:multiply"></polygon><rect x="48.67" y="288.36" width="71.4" height="8.22" transform="translate(168.73 584.93) rotate(180)" style="fill:#e6e6e6"></rect><rect x="120.07" y="288.36" width="92.76" height="8.22" style="fill:#f0f0f0"></rect><rect x="66.85" y="76.63" width="103.48" height="177.32" transform="translate(237.18 330.58) rotate(180)" style="fill:#e6e6e6"></rect><rect x="60.78" y="76.63" width="107.88" height="177.32" transform="translate(229.44 330.58) rotate(180)" style="fill:#f5f5f5"></rect><rect x="30.92" y="116.2" width="167.61" height="98.18" transform="translate(280.01 50.57) rotate(90)" style="fill:#fff"></rect><circle cx="118.13" cy="163.47" r="33.46" transform="translate(-34.4 31.51) rotate(-13.28)" style="fill:#fafafa"></circle><path d="M80,198.55c5.45-7,12.57-11.94,17.84-11.94,3.3,0,5.27,2,5.79,5.14,2.43-1.82,4.88-2.9,6.93-2.9,3.59,0,4.89,3.36,3.61,8.09a15.69,15.69,0,0,1,6-1.8c3.67-.22,5.74,1.71,5.94,4.85a6,6,0,0,1,2.58-.9c2.11-.13,2.67,1.82,1.26,4.34l-.28.47H71.49C72.35,201.43,77.38,198.67,80,198.55Z" style="fill:#f0f0f0"></path><path d="M87.94,104.12c3.15-4.05,7.29-6.93,10.34-6.93a3.2,3.2,0,0,1,3.36,3,7.28,7.28,0,0,1,4-1.68c2.09,0,2.84,2,2.1,4.7a8.94,8.94,0,0,1,3.49-1c2.13-.13,3.33,1,3.44,2.81a3.6,3.6,0,0,1,1.5-.52c1.23-.07,1.55,1.06.73,2.52l-.16.27H83C83.5,105.79,86.42,104.19,87.94,104.12Z" style="fill:#f5f5f5"></path><path d="M128.6,131.75l.27,0c1.32-1.28,2.66-2.1,3.61-2.1.68,0,1.05.43,1.12,1.15,2.47-2.49,5-4.1,6.78-4.1,1.43,0,2.1,1,2,2.76a6,6,0,0,1,3.27-1.56c1.56,0,1.8,1.81.79,4.36h0a7,7,0,0,1,2.78-1c1.61-.11,2.32.93,2.1,2.62a2.75,2.75,0,0,1,1.21-.49c.88-.06,1,.87.26,2.12H123.2C124.57,133.62,126.93,132,128.6,131.75Z" style="fill:#f0f0f0"></path><path d="M109.84,227.64l.32,0c1.55-1.5,3.12-2.46,4.23-2.46.81,0,1.25.5,1.33,1.35,2.9-2.93,5.89-4.83,8-4.83,1.68,0,2.46,1.24,2.37,3.26a7,7,0,0,1,3.85-1.84c1.83,0,2.11,2.13.93,5.12h0a8.12,8.12,0,0,1,3.27-1.14c1.89-.14,2.72,1.08,2.47,3.07a3.3,3.3,0,0,1,1.42-.57c1-.07,1.15,1,.31,2.49H103.48C105.09,229.84,107.87,227.89,109.84,227.64Z" style="fill:#fafafa"></path></g><g id="freepik--Shadow--inject-39"><ellipse id="freepik--path--inject-39" cx="250" cy="416.24" rx="193.89" ry="11.32" style="fill:#f5f5f5"></ellipse></g><g id="freepik--TV--inject-39"><polygon points="452.93 205.59 212.66 205.59 203.11 67.37 443.39 67.37 452.93 205.59" style="fill:#fff"></polygon><g style="opacity:0.1"><polygon points="285.9 128.98 216.33 128.98 212.83 78.21 282.39 78.21 285.9 128.98" style="fill:#495057"></polygon><polygon points="362.69 128.98 293.13 128.98 289.63 78.21 359.19 78.21 362.69 128.98" style="fill:#495057"></polygon><polygon points="289.96 187.91 220.4 187.91 216.9 137.14 286.46 137.14 289.96 187.91" style="fill:#495057"></polygon><polygon points="366.76 187.91 297.2 187.91 293.7 137.14 363.26 137.14 366.76 187.91" style="fill:#495057"></polygon><polygon points="439.5 128.98 369.93 128.98 366.43 78.21 435.99 78.21 439.5 128.98" style="fill:#495057"></polygon><polygon points="443.56 187.91 374 187.91 370.5 137.14 440.06 137.14 443.56 187.91" style="fill:#495057"></polygon></g><path d="M339.57,108.52c-4.54-7.23-10.27-6.42-14.55-4.45l-2,13.61C327.61,128.16,344.12,115.75,339.57,108.52Z" style="fill:#263238"></path><path d="M311.05,148.4c-.05.88-.11,1.53-.18,2.28s-.18,1.44-.28,2.15c-.21,1.43-.46,2.84-.76,4.25a55.77,55.77,0,0,1-2.53,8.37,36.57,36.57,0,0,1-4.25,8,24.68,24.68,0,0,1-7,6.76l.47-.35a7.38,7.38,0,0,1-2.17,1.26,7,7,0,0,1-2.24.43,9.06,9.06,0,0,1-3.38-.54,18.36,18.36,0,0,1-4.39-2.32A46.16,46.16,0,0,1,278,173.2c-1.9-1.94-3.66-3.94-5.34-6s-3.26-4.15-4.77-6.39a2.39,2.39,0,0,1,3.62-3.07l0,0c1.82,1.72,3.69,3.5,5.58,5.18s3.79,3.36,5.73,4.9a45.77,45.77,0,0,0,5.81,4.09,10.52,10.52,0,0,0,2.56,1.1c.31.07.54.06.44,0a1.31,1.31,0,0,0-.86.32l.46-.36a17,17,0,0,0,4.17-4.67,33.12,33.12,0,0,0,3-6.26,52.27,52.27,0,0,0,1.94-7.05c.26-1.21.48-2.43.66-3.65l.25-1.83c.07-.58.15-1.26.19-1.72v-.12a4.8,4.8,0,0,1,9.57.66Z" style="fill:#cf7a64"></path><path d="M261.17,152.56l-3.09,1.81A1.62,1.62,0,0,0,258,157l1.88,1.63a4.16,4.16,0,0,0,1.68.9l7.71,2.12,3.77-2c-1.06-3.82-7-5.52-7-5.52l-3.35-1.58A1.6,1.6,0,0,0,261.17,152.56Z" style="fill:#ce7a63"></path><path d="M297.37,152a28,28,0,0,1-.81,3.93s7.74,8.09,14.61,8.18a3.93,3.93,0,0,0,.75-3.39Z" style="fill:#263238"></path><path d="M304.76,138.36c-6.9,5-6.81,10.32-8.39,14.67,3.11,5.62,15.67,9.15,15.67,9.15S314.4,131.38,304.76,138.36Z" style="fill:#495057"></path><path d="M301.93,144.43c-.09,14.13,9.25,24.81,11,39.71l35.58-.86c-2-14.51-1.5-13.06,1.66-41.1a6.24,6.24,0,0,0-5.46-6.74c-2.68-.3-6-.58-9.42-.65a119.29,119.29,0,0,0-17.27.49c-3.69.44-7.6,1.16-10.58,1.76C304,137.74,302,140.85,301.93,144.43Z" style="fill:#495057"></path><path d="M319.45,142.88c-2,.16-5,2.64-6.49,5.94-5.22-16.42,5.05-13.54,5.05-13.54Z" style="fill:#fff"></path><path d="M323.7,143.47c2-.07,6.51,2.95,8,6.28,14.75-19.19,3.6-15,3.6-15Z" style="fill:#fff"></path><path d="M331.67,115.35c-.55,5.6-.64,15.83,3.61,19.44,0,0-6.07,7.1-13.58,9.42a1.52,1.52,0,0,1-1.56-.48,9.43,9.43,0,0,1-2.13-8.45c6.05-1.66,5.44-6.26,3.94-10.56Z" style="fill:#ce7a63"></path><path d="M327.71,119.18,322,124.72a19.5,19.5,0,0,1,.83,3c2.33-.41,5.33-3.1,5.34-5.59A8.59,8.59,0,0,0,327.71,119.18Z" style="opacity:0.2"></path><path d="M336.54,105c-1.3,9.11-1.65,13-6.72,17a12.46,12.46,0,0,1-20.18-7.8c-1.34-8.55,1-22,10.39-24.35S337.84,95.87,336.54,105Z" style="fill:#ce7a63"></path><path d="M347.42,78.56c-8.22-1.76-10.92,3.61-11.85,8.28l9.5,10.83C355.9,101.26,360.67,81.4,347.42,78.56Z" style="fill:#263238"></path><path d="M334.69,85.73c-.27-3.17,2.48-4.29,5.46-3s7.5,5.34,8.2,10.26-1.44,8.91-4.16,8.15S334.69,85.73,334.69,85.73Z" style="fill:#495057"></path><path d="M345.84,94.23c-3.41-9.89-19.33-16.89-27.8-7.89l10.67,7.33c-.2,5.5,1.26,11,6.54,15.13C342,114.13,349.16,103.84,345.84,94.23Z" style="fill:#263238"></path><path d="M330.42,96c-10.07,5.18-21.95-2.83-22.17,9.77-4.62-7.85-3.13-21.51,9.05-22.93C330.59,81.29,337.39,92.42,330.42,96Z" style="fill:#263238"></path><path d="M332.7,103.4c-3.57,2.61-3,7.22-2.15,9.63a8.36,8.36,0,0,1,3.17-6.55Z" style="fill:#263238"></path><path d="M322.81,105.79c-.06.75-.51,1.3-1,1.23s-.84-.74-.78-1.49.5-1.3,1-1.22S322.87,105.05,322.81,105.79Z" style="fill:#263238"></path><path d="M313.12,104.41c-.06.74-.51,1.29-1,1.22s-.85-.74-.79-1.49.51-1.29,1-1.22S313.18,103.66,313.12,104.41Z" style="fill:#263238"></path><path d="M312.55,103l-1.78-.78S311.59,103.75,312.55,103Z" style="fill:#263238"></path><path d="M316.41,106.16a18.19,18.19,0,0,1-3.07,4.38,3.44,3.44,0,0,0,2.66.9Z" style="fill:#ba4d3c"></path><path d="M318.54,114.56a7.21,7.21,0,0,1-1.28-.08.24.24,0,0,1-.2-.25.2.2,0,0,1,.24-.19,5.62,5.62,0,0,0,5.07-1.6.22.22,0,0,1,.31,0,.21.21,0,0,1,0,.31A5.72,5.72,0,0,1,318.54,114.56Z" style="fill:#263238"></path><path d="M338.3,110.1a6.16,6.16,0,0,1-3.32,3.77c-2.12.95-3.67-.92-3.49-3.16.16-2,1.46-4.94,3.78-4.94A3.27,3.27,0,0,1,338.3,110.1Z" style="fill:#ce7a63"></path><path d="M326.18,102.29a.48.48,0,0,1-.33-.15,3.78,3.78,0,0,0-3-1.34.47.47,0,0,1-.52-.39.4.4,0,0,1,.35-.49,4.67,4.67,0,0,1,3.82,1.65.43.43,0,0,1,0,.62A.37.37,0,0,1,326.18,102.29Z" style="fill:#263238"></path><path d="M311.14,100.49a.53.53,0,0,1-.26-.21.42.42,0,0,1,.14-.6,4.44,4.44,0,0,1,4.05-.13.46.46,0,0,1,.21.6.42.42,0,0,1-.59.18,3.52,3.52,0,0,0-3.2.13A.43.43,0,0,1,311.14,100.49Z" style="fill:#263238"></path><path d="M322.23,104.38l-1.77-.78S321.28,105.14,322.23,104.38Z" style="fill:#263238"></path><path d="M357.38,200.51h-49c5-4.22,3.33-11.46,4.54-16.37l35.58-.86C354.27,187.34,355.46,193.15,357.38,200.51Z" style="fill:#263238"></path><path d="M350.13,140.2c1.83,2.62,3.34,5.16,4.88,7.81s2.91,5.36,4.19,8.15a79.77,79.77,0,0,1,3.42,8.65,49.07,49.07,0,0,1,2.16,9.41l0,.31a2.82,2.82,0,0,1,0,.77,35.65,35.65,0,0,1-2.93,9.13q-1,2.1-2.14,4.06a45.73,45.73,0,0,1-2.57,3.83,2.41,2.41,0,0,1-4.24-2.1l0-.14c.35-1.29.77-2.67,1.11-4s.69-2.68,1-4,.53-2.65.75-3.93a36.38,36.38,0,0,0,.38-3.75l0,1.08a46,46,0,0,0-2.23-7.61c-1-2.55-2.12-5.09-3.36-7.6s-2.59-5-4-7.44-2.93-4.91-4.38-7.16l-.06-.1a4.8,4.8,0,0,1,8-5.35Z" style="fill:#cf7a64"></path><path d="M354.36,143.42a33,33,0,0,0,2.55,3.35s-3.42,10-9.72,12.35a4.47,4.47,0,0,1-2.25-2.88Z" style="fill:#263238"></path><path d="M344.27,135.36c6.77.88,9,4.86,11.31,9.14-2.11,5.72-10.7,14.56-10.7,14.56S332,133.77,344.27,135.36Z" style="fill:#495057"></path><path d="M354.49,187.38l-7,2a6.65,6.65,0,0,0-3.93,3l-.79,1.33a1.81,1.81,0,0,0,.41,2.27l3.48,3.07a2.15,2.15,0,0,0,2.95,0l3.55-3.52s5.21-2.7,5.05-6.59Z" style="fill:#ce7a63"></path><path d="M272.9,159.41c-.67-4.17-5-6.81-6.83-9a.68.68,0,0,0-1.11.31c-.22.85,1.14,2.49,1.74,2.84.05.78-.11,5,3,5.93C271,159.53,272.9,159.41,272.9,159.41Z" style="fill:#ce7a63"></path><path d="M348.85,181.12a12.38,12.38,0,0,1,.66,2.06.51.51,0,0,1-.43.64c-3.78.49-25.92,3.18-36.15,1.47a.58.58,0,0,1-.49-.53c-.07-.63-.2-1.61-.28-2.24a.5.5,0,0,1,.5-.59c3.51,0,22-.21,35.62-1.15A.57.57,0,0,1,348.85,181.12Z" style="fill:#495057"></path><path d="M348.85,181.12a12.38,12.38,0,0,1,.66,2.06.51.51,0,0,1-.43.64c-3.78.49-25.92,3.18-36.15,1.47a.58.58,0,0,1-.49-.53c-.07-.63-.2-1.61-.28-2.24a.5.5,0,0,1,.5-.59c3.51,0,22-.21,35.62-1.15A.57.57,0,0,1,348.85,181.12Z" style="fill:#fff;opacity:0.4"></path><path d="M328.33,181.11a29.52,29.52,0,0,0-7.66.4c-.53.32,0,4.44.5,4.69,1,.51,6.54.23,7.53-.06S329.05,181.33,328.33,181.11Z" style="fill:#fff"></path><polygon points="452.93 205.59 212.66 205.59 211.73 192.22 452.01 192.22 452.93 205.59" style="fill:#495057"></polygon><polygon points="430.8 89.75 393.21 89.75 391.66 67.37 429.25 67.37 430.8 89.75" style="fill:#495057"></polygon><path d="M396.52,76.63h2.65l.44,6.45h4.13l.15,2.11h-6.78Z" style="fill:#fff"></path><path d="M404.61,76.63h2.65l.59,8.56H405.2Z" style="fill:#fff"></path><path d="M408.31,76.63h2.77l2.35,6.16,1.48-6.16h2.68L415,85.19h-2.87Z" style="fill:#fff"></path><path d="M418.45,76.63h7.09l.13,1.83h-4.44l.1,1.36h4.11l.12,1.75h-4.11l.11,1.68h4.57l.13,1.94H419Z" style="fill:#fff"></path><path d="M455.61,208.09H210.32L200.44,64.87H445.72Zm-240.62-5H450.25l-9.2-133.22H205.79Z" style="fill:#263238"></path><path d="M445.57,205.45a.78.78,0,0,1,.8-.86.94.94,0,0,1,.92.86.79.79,0,0,1-.8.86A.93.93,0,0,1,445.57,205.45Z" style="fill:#495057"></path><path d="M440.07,205.45a.78.78,0,0,1,.8-.86.94.94,0,0,1,.92.86.79.79,0,0,1-.8.86A.93.93,0,0,1,440.07,205.45Z" style="fill:#fff"></path></g><g id="freepik--Characters--inject-39"><path d="M149.21,314.53l-2.36-1.75a3.4,3.4,0,0,0-3.08-.52l-4.91,1.57a6.39,6.39,0,0,0-4.13,4.14l-.38,1.22c3.7,3.18,10,3.88,10,3.88l1.79.41a2.85,2.85,0,0,0,3.46-2.08l.84-3.53A3.27,3.27,0,0,0,149.21,314.53Z" style="fill:#ffc3bd"></path><path d="M136.53,283.71l-.85,1.32-.89,1.43c-.58,1-1.14,1.94-1.7,2.93-1.1,2-2.13,4-3.09,6s-1.83,4.12-2.61,6.22a63.55,63.55,0,0,0-2,6.35l.08-.92a1.16,1.16,0,0,0,0,.61,2.65,2.65,0,0,0,.62,1,12.15,12.15,0,0,0,3.14,2.35,32.79,32.79,0,0,0,4.26,2c1.49.62,3.12,1.15,4.61,1.63l.15.05a2.4,2.4,0,0,1-.71,4.68A38.22,38.22,0,0,1,132,319a31.19,31.19,0,0,1-5.59-1.32,18.21,18.21,0,0,1-5.71-3.05,11.43,11.43,0,0,1-2.6-3,9.62,9.62,0,0,1-1.28-4.37,3.41,3.41,0,0,1,0-.72l0-.2a60.92,60.92,0,0,1,1.76-7.55,65.1,65.1,0,0,1,2.62-7.21c1-2.35,2.1-4.63,3.31-6.86.62-1.1,1.25-2.2,1.92-3.29s1.33-2.11,2.18-3.29a4.8,4.8,0,0,1,7.95,5.38Z" style="fill:#ffc3bd"></path><path d="M139.23,268.31c2.93,5.78,3.18,13.19-4.22,24.95-5.28.87-15.5-5.48-15.5-5.48S125.24,268.47,139.23,268.31Z" style="fill:#495057"></path><path d="M142.53,247.46c1.87,5.66,4.36,16.06.85,20.1,0,0,5.39-1.12,17.33,5.38,3.07-5,.5-6.37.5-6.37-6.6-1.17-7.05-5.9-6.52-10.41Z" style="fill:#ffc3bd"></path><path d="M145.77,268.79a2.71,2.71,0,1,1-2.64-2.76A2.71,2.71,0,0,1,145.77,268.79Z" style="fill:#263238"></path><path d="M149.17,268.41a2.71,2.71,0,1,1-2.64-2.77A2.7,2.7,0,0,1,149.17,268.41Z" style="fill:#263238"></path><path d="M152.87,268.3a2.71,2.71,0,1,1-2.46-2.93A2.7,2.7,0,0,1,152.87,268.3Z" style="fill:#263238"></path><path d="M156.3,268.12a2.71,2.71,0,1,1-2.47-2.92A2.71,2.71,0,0,1,156.3,268.12Z" style="fill:#263238"></path><path d="M159.6,268.46a2.7,2.7,0,1,1-2.16-3.16A2.7,2.7,0,0,1,159.6,268.46Z" style="fill:#263238"></path><path d="M163,268.63a2.71,2.71,0,1,1-2.16-3.16A2.71,2.71,0,0,1,163,268.63Z" style="fill:#263238"></path><path d="M160.05,234.82c.25.75.85,1.26,1.34,1.13s.68-.84.42-1.59-.85-1.26-1.33-1.13S159.8,234.06,160.05,234.82Z" style="fill:#263238"></path><path d="M160.27,233.32l1.62-1S161.44,234,160.27,233.32Z" style="fill:#263238"></path><path d="M160.48,236.24a23.14,23.14,0,0,0,4.27,4.12,3.16,3.16,0,0,1-2.49,1.19Z" style="fill:#ed847e"></path><path d="M160.22,228.43a.42.42,0,0,0,0-.33.46.46,0,0,0-.62-.2,4.87,4.87,0,0,0-2.8,3.26.43.43,0,0,0,.38.5.51.51,0,0,0,.55-.4A3.84,3.84,0,0,1,160,228.7.52.52,0,0,0,160.22,228.43Z" style="fill:#263238"></path><path d="M134.49,238.46c3.38,8.82,4.62,12.61,10.62,16,9,5.17,19.17-.28,18.51-9.77-.6-8.55-6-21.53-16-22.84A12.1,12.1,0,0,0,134.49,238.46Z" style="fill:#ffc3bd"></path><path d="M151.55,224.54c2.92-7-6.54-10.22-15.93-6.36s-14.55,12.78-9.07,20.7,11.09,23.46-.29,21.38c9.09,8.91,29.33,5.1,34.23-4.69s-4-17.31-4-17.31S159.43,229.75,151.55,224.54Z" style="fill:#263238"></path><path d="M147.28,227.39c5.47,1.17,11.53-1.53,10.53-6.77-.92-4.84-12.83-8.72-20.26-5.42C129.21,218.91,136.25,225,147.28,227.39Z" style="fill:#263238"></path><path d="M126.22,238.39c2.86,4.71,9.8,20.34,1.62,19.47,3.7,1.43,6.86-.36,5.78-8.3A15.27,15.27,0,0,0,126.22,238.39Z" style="fill:#263238"></path><path d="M154.39,241.24a6.47,6.47,0,0,0,4.61,2.5c2.24.08,2.6-2.54,1.35-4.79-1.12-2-3.64-4.52-5.57-3.53S152.85,239.36,154.39,241.24Z" style="fill:#ffc3bd"></path><path d="M179.53,280.2a179.41,179.41,0,0,1,.74,18c.07,4.08.07,8.14,0,12.92a16.59,16.59,0,0,1-15.65,16.31l-7.85.44A16.55,16.55,0,0,1,139.49,314c-1.35-8.35-4.09-18.73-9.14-33.4a9.17,9.17,0,0,1,7.17-12.34c1.54-.24,3.19-.47,4.88-.64a125.11,125.11,0,0,1,17.83-1c2,.07,4,.2,5.91.36A14.82,14.82,0,0,1,179.53,280.2Z" style="fill:#495057"></path><path d="M216.64,313.76l-1.72-2.38a3.43,3.43,0,0,0-2.79-1.41L207,310a6.34,6.34,0,0,0-5.17,2.71l-.74,1c2.59,4.14,8.43,6.71,8.43,6.71l1.58.91a2.83,2.83,0,0,0,3.93-.95l1.86-3.11A3.29,3.29,0,0,0,216.64,313.76Z" style="fill:#ffc3bd"></path><path d="M179.54,281.35l.77,2.74c.28,1,.57,1.9.89,2.85q.92,2.85,1.94,5.68c.69,1.89,1.4,3.77,2.16,5.63s1.55,3.71,2.38,5.55l-.51-.77a9.18,9.18,0,0,0,3,2.41,31.55,31.55,0,0,0,4.61,2c1.65.6,3.38,1.12,5.15,1.6s3.6.92,5.33,1.31l.11,0a2.4,2.4,0,0,1-.37,4.73,52.8,52.8,0,0,1-6,0,48.45,48.45,0,0,1-6-.71,32,32,0,0,1-6.17-1.74,16.42,16.42,0,0,1-6.27-4.2,2.83,2.83,0,0,1-.32-.45l-.18-.32a103.51,103.51,0,0,1-5.69-11.7c-.84-2-1.58-4.05-2.27-6.12-.34-1-.66-2.08-1-3.14s-.58-2.07-.86-3.31a4.8,4.8,0,0,1,9.31-2.36Z" style="fill:#ffc3bd"></path><path d="M169.24,267.6c6.25,1.69,11.91,6.48,15.67,19.85-2.89,4.51-14.46,7.83-14.46,7.83S160,278.08,169.24,267.6Z" style="fill:#495057"></path><path d="M230.74,267.31a8.53,8.53,0,0,0-4-3.91,7.82,7.82,0,0,1-.05-5.29L207,251.48c1.5,6.58,2.67,11.78.18,14.92,3.86,2.44,10.94,6.83,18.73,6.73S232,270.08,230.74,267.31Z" style="fill:#ffb573"></path><path d="M225.22,238.73l2,6.19s2.53-.22,3.58-1.73A13.47,13.47,0,0,0,225.22,238.73Z" style="fill:#ed893e"></path><path d="M224.85,238c.31.71.94,1.11,1.4.9s.58-1,.26-1.66-.94-1.11-1.4-.9S224.53,237.25,224.85,238Z" style="fill:#263238"></path><path d="M223.84,232.83a.45.45,0,0,1-.42,0,3.55,3.55,0,0,0-3.27.14.45.45,0,0,1-.5-.76,4.43,4.43,0,0,1,4.12-.22.44.44,0,0,1,.24.59A.51.51,0,0,1,223.84,232.83Z" style="fill:#263238"></path><path d="M199.85,246.16c4.42,8.42,7.59,14,14.26,15.45,13.24,2.8,17.12-4.61,15.31-14.21-1.64-8.63-8.58-21-18.58-20.52A13.1,13.1,0,0,0,199.85,246.16Z" style="fill:#ffb573"></path><path d="M215.73,233.83c4.47-.43,6.06,5.07,4.33,11.07,3.62,3.13,3.22,14.29-10.36,14.56-5.92.12-19.45-9.61-16-17.18S215.73,233.83,215.73,233.83Z" style="fill:#263238"></path><path d="M212.56,240c6.47-4.29,9.86-9.89,8.17-15s-7.94-6.86-13.81-5.53-.83,4.76-.83,4.76-7.87-1-11.84,2.33,1.23,4.45,1.23,4.45-7.43,6.47-1.63,11.82C198.37,247,208.66,242.55,212.56,240Z" style="fill:#263238"></path><path d="M199.54,266.79c.67-3.21,3-4.45,5.29-5.42s21.37.33,25.94,1.29a62,62,0,0,1,2.9,6Z" style="fill:#495057"></path><path d="M215.36,245.42a7.79,7.79,0,0,0,5.3,2.79c2.75.23,3.63-2.36,2.45-4.69-1.06-2.09-3.77-4.73-6.33-3.87A3.56,3.56,0,0,0,215.36,245.42Z" style="fill:#ffb573"></path><path d="M237.08,265.08a182.66,182.66,0,0,0-40.08,0,13.63,13.63,0,0,0-11.7,16A236.34,236.34,0,0,1,189,320.35a29.13,29.13,0,0,0,23.47,28.17,144.76,144.76,0,0,0,23.31,2.84,27.82,27.82,0,0,0,28.44-29.47c-1.48-24.64-11.59-38.23-16.47-49A13.55,13.55,0,0,0,237.08,265.08Z" style="fill:#263238"></path><rect x="93.14" y="278.61" width="22.42" height="1.99" style="fill:#263238"></rect><path d="M126.23,275.15l.94,6c-1.32,6.27-9.09,3.18-9.09,3.18l-4.34,0a3.22,3.22,0,0,1-3-2.89l-.69-4.2a3.38,3.38,0,0,1,2.45-4l3.73-.63a6.6,6.6,0,0,1,3.24.25Z" style="fill:#ffb573"></path><path d="M201.59,288.55l-9.51,1.62-9.56,1.57-9.5,1.61c-3.15.55-6.3,1.09-9.39,1.67l-1.77.33-.73,0c-3.74-.17-7-.58-10.32-1s-6.53-.94-9.75-1.47-6.41-1.13-9.6-1.77-6.34-1.31-9.54-2.08l1.87-15.24c3.16,0,6.37.09,9.55.12l9.51.18c3.16.09,6.3.12,9.4.16s6.21,0,8.88-.12l-2.51.3c3.26-.95,6.49-1.85,9.73-2.68s6.45-1.63,9.68-2.38,6.46-1.49,9.69-2.17,6.45-1.34,9.77-1.92Z" style="fill:#263238"></path><path d="M303.17,309.45l-.59,6.07c1.68,6.18,9.25,2.64,9.25,2.64l4.34-.22a3.25,3.25,0,0,0,2.85-3.06l.44-4.25a3.37,3.37,0,0,0-2.68-3.86l-3.76-.42a6.69,6.69,0,0,0-3.22.44Z" style="fill:#ffb573"></path><path d="M246.16,270.26c2.57,2.35,5.13,4.8,7.7,7.19l7.64,7.26,15.22,14.4-2.22-1.44a59.47,59.47,0,0,0,6.68,3.14c2.44.94,5,1.85,7.63,2.66s5.34,1.56,8.06,2.27c1.37.36,2.74.72,4.11,1l4,1L303.83,323c-1.75.05-3.24.05-4.84,0s-3.15-.09-4.73-.19q-4.71-.28-9.47-.94c-3.18-.48-6.38-1.05-9.62-1.86a68,68,0,0,1-9.94-3.3l-.79-.33L263,315.31c-2.88-2.23-5.7-4.46-8.48-6.73s-5.54-4.53-8.26-6.85-5.44-4.6-8.13-6.94-5.35-4.68-8-7.12Z" style="fill:#263238"></path><path d="M336.75,315.38H285.11a12,12,0,0,0-12,12v79.47a12,12,0,0,0,12,12h39.64a12,12,0,0,0,12-12V350.27a17.45,17.45,0,0,0,0-34.89Z" style="fill:#495057"></path><polygon points="310.36 350.27 336.75 359.77 336.75 350.27 310.36 350.27" style="opacity:0.2"></polygon><path d="M274,280.6H75.44A10.31,10.31,0,0,0,65,292.44a13.71,13.71,0,0,0,13.24,11.83L90.44,406.85a13.94,13.94,0,0,0,13.43,12h186.6a10.46,10.46,0,0,0,10.57-12L287.47,292.6A13.93,13.93,0,0,0,274,280.6Z" style="fill:#495057"></path><path d="M260.22,283.93H67.63a10.55,10.55,0,0,0-2.62,8.5,13.71,13.71,0,0,0,13.24,11.84L90.44,406.85a13.93,13.93,0,0,0,13.42,12H284.52a10.7,10.7,0,0,0,2.7-8.67L273.65,295.93A14,14,0,0,0,260.22,283.93Z" style="opacity:0.2"></path><path d="M263,304.77H83a.5.5,0,0,1-.5-.5.5.5,0,0,1,.5-.5H263a.5.5,0,0,1,.5.5A.5.5,0,0,1,263,304.77Z" style="opacity:0.1"></path><ellipse cx="275.62" cy="292.44" rx="11.15" ry="12.56" transform="translate(-126.23 292.47) rotate(-46.7)" style="fill:#495057"></ellipse></g><g id="freepik--Lamp--inject-39"><rect x="361.61" y="248.97" width="13.51" height="13.51" rx="2.16" transform="translate(-42.15 75.26) rotate(-11.04)" style="fill:#263238"></rect><path d="M393.49,291l-35.15,6.86a2.07,2.07,0,0,1-2.47-2l-.29-37.67a2.08,2.08,0,0,1,1.68-2L378.81,252a2.07,2.07,0,0,1,2.32,1.27l13.89,35A2.07,2.07,0,0,1,393.49,291Z" style="fill:#495057"></path><path d="M326.46,406.84a1,1,0,0,1-1-1V298.5a1.05,1.05,0,0,1,.22-.64l40.82-49.44a1,1,0,0,1,1.55,1.27l-40.59,49.17v107A1,1,0,0,1,326.46,406.84Z" style="fill:#263238"></path><circle cx="326.46" cy="298.5" r="2.54" style="fill:#263238"></circle><path d="M370.05,251.15a3,3,0,1,1-.82-4.19A3,3,0,0,1,370.05,251.15Z" style="fill:#263238"></path><path d="M330,416.53h-7V382.7a3.51,3.51,0,0,1,3.5-3.5h0a3.52,3.52,0,0,1,3.5,3.5Z" style="fill:#263238"></path><path d="M310.62,415.62h31.67a5.33,5.33,0,0,1,5.33,5.33v0a0,0,0,0,1,0,0H305.29a0,0,0,0,1,0,0v0a5.33,5.33,0,0,1,5.33-5.33Z" style="fill:#263238"></path></g></svg>